<svg width="307" height="62" viewBox="0 0 307 62" fill="none" xmlns="http://www.w3.org/2000/svg">
<path d="M305.907 42.8327C305.636 42.3046 305.313 41.89 304.959 41.6179C304.816 41.504 304.671 41.4053 304.523 41.3224L304.218 41.172L303.967 41.082C303.65 40.9697 303.401 40.9174 303.145 40.8653C302.646 40.7605 302.189 40.7041 301.731 40.6604C300.824 40.585 299.944 40.5462 299.072 40.5321C297.327 40.504 295.605 40.5376 293.87 40.5843C289.324 40.7723 284.843 40.9576 280.352 41.2061L280.577 40.9961C280.713 40.8503 280.841 40.6813 280.96 40.4913C281.214 40.1228 281.422 39.6514 281.571 39.1075C281.72 38.5636 281.806 37.9592 281.824 37.3329C281.874 36.3608 281.758 35.3657 281.495 34.4939C281.232 33.6222 280.835 32.9198 280.362 32.4901C280.173 32.2972 279.972 32.1537 279.765 32.0634C279.674 32.0121 279.581 31.974 279.487 31.9495C279.316 31.8939 279.25 31.8841 279.133 31.8639L278.668 31.8078C278.127 31.7675 277.679 31.786 277.224 31.8048L276.107 31.851C276.232 31.7421 276.352 31.6199 276.469 31.4849L276.686 31.2252C276.79 31.0892 276.891 30.9427 276.987 30.7864C277.19 30.4538 277.365 30.062 277.505 29.6238C277.929 29.0419 278.01 26.1166 277.392 24.374C281.895 24.1 286.392 23.8262 290.879 23.4901C293.113 23.3977 295.318 23.2187 297.611 22.9859L298.504 22.8612C298.666 22.8545 298.822 22.848 299.013 22.7523L299.328 22.6516L299.564 22.5415C299.722 22.4624 299.874 22.351 300.018 22.2091C299.849 22.6801 301.36 20.8369 300.991 17.8926C300.1 14.5938 300.101 15.8728 299.819 15.1948C299.61 15.0028 299.61 15.0153 299.489 14.92L299.282 14.7906C299.036 14.6503 298.884 14.5939 298.711 14.5133C298.38 14.3765 298.09 14.2756 297.793 14.175C297.496 14.0744 297.135 14.0016 296.781 13.916L295.912 13.839C295.318 13.7758 294.744 13.7494 294.17 13.7104C292.652 13.6604 291.149 13.6598 289.615 13.6731L292.02 13.4858L297.471 13.1601C297.945 13.1404 298.413 13.1211 298.909 13.0002C299.156 12.99 299.4 12.9172 299.683 12.8428C300.016 12.7663 300.344 12.6353 300.662 12.4512C300.753 12.4003 300.842 12.338 300.928 12.2647C301.088 12.1454 301.241 11.9963 301.384 11.8194C301.289 12.9771 303.2 8.53399 301.457 5.70927C301.184 5.29016 300.866 4.99789 300.53 4.8572C300.336 4.76708 300.14 4.70396 299.943 4.66831L299.517 4.5856C298.994 4.51946 298.518 4.5015 298.043 4.48356C296.161 4.44852 294.342 4.51123 292.517 4.5742L281.646 5.02387L278.847 5.13965C280.084 4.6872 279.813 4.27203 282.165 3.74834C302.979 -0.410717 286.398 -0.703026 223.828 2.53722C210.196 3.23904 195.761 3.69821 181.844 4.27387L122.445 6.65559L90.624 7.97185L75.9732 8.57786C71.3104 8.77073 66.9139 8.95261 62.8283 9.25955L47.8719 10.3422L45.9782 10.4832C45.6405 10.4972 45.3314 10.5727 44.9004 10.6908L44.6822 10.7626L44.4845 10.8585L44.2814 10.9798C44.0346 11.3035 44.1876 10.7579 43.4199 12.1691C42.6521 13.5803 43.0362 15.9471 43.5353 17.3185L40.9376 17.4259L33.7941 17.7214C31.4367 17.8189 29.0728 17.9167 26.696 18.015C24.3191 18.1133 21.9306 18.0867 19.4914 18.2503C18.8809 18.2755 18.264 18.3011 17.6317 18.4276C16.9397 18.5014 16.2531 18.6554 15.5756 18.8888L15.2621 19.0146L14.8862 19.2058C14.722 19.3254 14.5762 19.4192 14.3757 19.6031C14.1751 19.7869 14.1133 19.8647 13.9896 20.0203C13.7796 20.3015 13.5902 20.6336 13.4255 21.0093C13.165 21.5755 12.9855 22.2654 12.903 23.0173C12.8206 23.7692 12.8378 24.5596 12.9532 25.3176C13.0532 26.032 13.2345 26.7031 13.4837 27.2812C13.7328 27.8593 14.0434 28.3294 14.3924 28.6565C14.5707 28.8183 14.7547 28.9533 14.9425 29.0601L15.2604 29.1974C15.5973 29.3215 15.8524 29.5116 16.0488 29.5411C16.8137 29.6348 17.0745 29.6491 17.6995 29.6609L9.90657 29.9832C8.4259 30.0445 6.95174 30.1055 5.44327 30.2807L4.28444 30.4164C3.88439 30.4957 3.50928 30.5488 2.99596 30.7205L2.78476 30.8045C2.69623 30.8368 2.60892 30.8781 2.52317 30.9282C2.38233 31.007 2.24508 31.1048 2.11244 31.2211C1.98407 31.5775 1.3786 31.2514 0.943588 34.417C1.16388 38.17 1.98214 38.1362 2.08808 38.4955C2.22468 38.6543 2.36745 38.791 2.51482 38.9042C2.60206 38.9794 2.69163 39.0428 2.78286 39.0938L2.99638 39.2229C3.43316 39.4543 3.87514 39.637 4.32006 39.7701C5.4689 40.1372 6.62542 40.3409 7.78003 40.3794C7.62919 40.8821 7.51172 41.4217 7.43017 41.9864C7.37399 42.8867 7.47756 43.8147 7.72437 44.6227C7.97119 45.4306 8.34704 46.0721 8.79203 46.4446C8.96668 46.5905 9.14789 46.7007 9.33256 46.7734C9.62921 46.8735 9.92745 46.9449 10.2261 46.9873L10.4729 46.9771C11.3028 47.0681 12.0572 47.062 12.8185 47.0681L15.2993 46.9655L20.2089 46.7624L39.8352 46.2892L66.0002 45.6834L48.1626 46.6219L38.3476 47.1282C35.0652 47.3518 31.8535 47.3969 28.5976 47.3184C25.3418 47.2398 22.0409 47.1757 18.6414 47.5546C17.7334 47.6444 16.8336 47.8577 15.9486 48.1927L15.5776 48.346C15.4438 48.4142 15.2861 48.5336 15.1404 48.6274L14.7047 48.9464C14.586 49.0642 14.4607 49.1822 14.3241 49.3383C14.1191 49.5568 13.9292 49.8213 13.7582 50.1267C13.464 50.6325 13.2647 51.3114 13.188 52.069C13.1122 52.8299 13.1601 53.6307 13.3252 54.3651C13.4904 55.0996 13.765 55.7331 14.1128 56.1816C14.3205 56.4491 14.5489 56.6476 14.7875 56.7681C14.9029 56.839 15.0204 56.8928 15.139 56.9292C15.2982 56.9902 15.4585 57.0338 15.6193 57.0598C16.5193 57.1606 17.4186 57.1653 18.313 57.0738L20.7951 56.8457C24.0718 56.4844 27.308 56.0872 30.5166 55.967L40.328 55.6866L59.9831 55.1244L62.9704 55.0009L62.9047 55.1415C62.6756 55.7988 62.5607 56.5867 62.5752 57.3999C62.5808 57.9959 62.6658 58.5882 62.822 59.1202C62.9374 59.536 63.0872 59.9156 63.2653 60.243L63.4466 60.5365C63.6547 60.8344 63.8839 61.0703 64.126 61.2357C64.2217 61.3172 64.3202 61.3844 64.4206 61.4368L64.5795 61.5054L64.8969 61.6302L65.1333 61.6832C65.4557 61.7702 65.69 61.773 65.9513 61.7998C66.4449 61.7794 66.9059 61.7603 67.354 61.7418C69.1529 61.6674 70.8372 61.4974 72.5052 61.4033L91.6522 60.8245C103.683 60.4147 114.148 59.894 122.785 59.3862C132.323 58.7785 139.645 58.0869 144.357 57.3528L151.364 57.0629L233.248 53.3248C246.85 53.0004 260.493 51.4705 274.226 51.6298C281.078 51.6849 287.873 51.291 294.754 50.7806C296.478 50.6466 298.208 50.4747 299.972 50.176C300.857 50.0265 301.74 49.8395 302.678 49.5374C303.193 49.3759 303.701 49.1539 304.198 48.8726C304.663 48.7296 305.116 48.488 305.548 48.1521C305.689 47.9939 305.823 47.8122 305.948 47.6089C306.14 47.332 306.306 46.9948 306.44 46.6104C306.539 46.3552 306.598 46.0494 306.612 45.7254C306.785 45.8186 306.514 43.6854 305.907 42.8327ZM278.354 33.4887C278.323 33.3771 278.323 33.3771 278.354 33.4887V33.4887ZM64.8298 57.0182L64.8804 56.828L64.8357 57.0054L64.8298 57.0182Z" fill="#2F80ED" fill-opacity="0.17" style="fill:#2F80ED;fill:color(display-p3 0.1843 0.5020 0.9294);fill-opacity:0.17;"/>
</svg>
