<svg id="Layer_1" enable-background="new 0 0 64 64" height="512" viewBox="0 0 64 64" width="512" xmlns="http://www.w3.org/2000/svg"><g><g><path d="m24.4 59.6c0 .4.3.7.7.7h13.7c.4 0 .7-.3.7-.7v-1.7h-15.1z"/><path d="m24.4 53.9h15.2v2.4h-15.2z"/><path d="m26.7 62.2c.6 1.1 2 1.8 3.6 1.8h3.3c1.5 0 3-.7 3.6-1.8l.2-.3h-10.8z"/><path d="m19.5 39.6c3.1 3.8 5.5 7.1 5.6 12.6h13.8c.1-5.4 2.5-8.8 5.6-12.6 1.5-1.9 2.7-4.6 3.3-7.5h-31.6c.6 2.8 1.8 5.6 3.3 7.5z"/><path d="m46.7 23.2-.1-.1-.1.1c-.5.4-1.1.7-1.7.9-.1 0-.2.1-.3.1-.3 0-.6-.2-.7-.5-.1-.2-.1-.4 0-.6s.2-.4.4-.4c1-.4 1.5-.9 1.7-1.1.5-.6.8-1.3.8-2 0-1.7-1.5-3.1-3.2-3.1-.4 0-.7.1-1 .2-.1 0-.2 0-.3 0-.2 0-.4-.1-.6-.3s-.3-.6-.1-.9c.1-.3.2-.6.2-.9 0-1.1-.9-1.9-1.9-1.9-.6 0-1.2.3-1.6.8-.2.2-.4.3-.7.3-.1 0-.2 0-.2 0-.3-.1-.6-.4-.6-.8v-1.3c0-.4-.1-.7-.4-.9-.1-.1-.4-.4-.9-.4-.7 0-1.3.6-1.3 1.3v3h.1c.7.2 1.7.7 2.3 1.8.1.2.1.4.1.6-.1.2-.2.4-.4.5-.1.3-.2.4-.4.4-.3 0-.5-.1-.7-.4s-.5-.6-.8-.8l-.3-.2v6h.2c1.1.2 2.7.9 3.7 2.8.2.4.1.9-.3 1.1-.1.1-.3.1-.4.1-.3 0-.6-.2-.7-.4-.5-1-1.3-1.6-2.3-1.9l-.3-.1v6.1h10.6l-.4-.4c-.2-.1-.4-.3-.6-.4-.4-.3-.4-.8-.2-1.1.2-.2.4-.3.6-.3s.3.1.5.2c.8.6 1.4 1.1 2 1.7l.1.1.1-.1c1.1-.8 1.7-2 1.7-3.3.2-1.5-.5-2.8-1.6-3.5zm-4.8-.1c-.1 0-.2 0-.2 0-.4 0-.7-.2-.8-.6-.5-1.6-3-1.6-3.1-1.6-.4 0-.8-.4-.8-.8 0-.2.1-.4.2-.6.1-.1.3-.2.6-.2v-.2.2c.4 0 3.8.1 4.6 2.8.1.4-.1.8-.5 1z"/><path d="m17.2 29.9.1.1.1-.1c.5-.6 1.2-1.1 2-1.7.1-.1.3-.2.5-.2.3 0 .5.1.6.3.3.4.2.8-.2 1.1-.2.1-.4.3-.6.4l-.4.4h10.6v-6.1l-.3.1c-1 .3-1.7 1-2.3 1.9-.1.3-.4.4-.7.4-.1 0-.3 0-.4-.1-.4-.2-.5-.7-.3-1.1 1.1-2 2.8-2.6 3.8-2.8h.2v-6l-.3.2c-.3.2-.6.5-.8.8-.1.3-.4.4-.7.4-.1 0-.3 0-.4-.1-.4-.2-.5-.7-.3-1.1.6-1.1 1.6-1.6 2.3-1.8h.1v-3c0-.7-.6-1.3-1.3-1.3-.3 0-.7.1-.9.4-.2.2-.4.6-.4.9v1.3c0 .4-.2.7-.6.8-.1 0-.2 0-.2 0-.3 0-.5-.1-.7-.3-.4-.5-1-.8-1.6-.8-1.1 0-2 .9-2 1.9 0 .3.1.6.2.9s.1.6-.1.9c-.2.2-.4.3-.6.3-.1 0-.2 0-.3 0-.3-.1-.7-.2-1-.2-1.8 0-3.2 1.4-3.2 3.1 0 .7.3 1.4.8 2 .2.2.7.6 1.7 1 .2.1.3.2.4.4s.1.4 0 .6c-.1.3-.4.5-.7.5-.1 0-.2 0-.3-.1-.7-.3-1.2-.6-1.7-.9l-.1-.1-.1.1c-1.1.8-1.8 2-1.8 3.4.2 1.2.8 2.5 1.9 3.2zm4.4-7.8c.8-2.7 4.3-2.8 4.6-2.8.2 0 .4.1.5.2.2.2.2.4.2.6 0 .4-.4.8-.8.8-.1 0-.7 0-1.4.2-.9.3-1.5.8-1.7 1.4-.1.3-.4.6-.8.6-.1 0-.1 0-.2 0-.2-.1-.4-.2-.5-.4.1-.2 0-.4.1-.6z"/><path d="m32 5c.7 0 1.2-.5 1.2-1.2v-2.6c0-.7-.5-1.2-1.2-1.2s-1.2.5-1.2 1.2v2.6c0 .6.5 1.2 1.2 1.2z"/><path d="m19.5 7.2c.2.4.6.6 1 .6.2 0 .4-.1.6-.2.3-.2.5-.4.5-.7.1-.3 0-.6-.2-.9l-1.4-2.2c-.2-.4-.6-.6-1-.6-.2 0-.4.1-.6.2s-.4.4-.4.7c-.1.3 0 .6.2.9z"/><path d="m12.7 13.3-2.4-1.3c-.2-.1-.4-.1-.6-.1-.4 0-.8.2-1.1.6-.3.6-.1 1.3.5 1.6l2.4 1.3c.2.1.4.1.6.1.4 0 .8-.2 1.1-.6.3-.6.1-1.3-.5-1.6z"/><path d="m10.3 24.9c0-.7-.5-1.2-1.2-1.2h-2.8c-.7 0-1.2.5-1.2 1.2s.5 1.2 1.2 1.2h2.8c.6 0 1.2-.5 1.2-1.2z"/><path d="m12.1 34.3c-.2 0-.4 0-.6.1l-2.4 1.3c-.6.3-.8 1-.5 1.6.3.5.7.7 1.1.7.2 0 .4 0 .6-.1l2.4-1.3c.6-.3.8-1 .5-1.6-.2-.4-.6-.7-1.1-.7z"/><path d="m54.9 35.8-2.4-1.3c-.2-.1-.4-.1-.6-.1-.4 0-.8.2-1.1.6-.3.6-.1 1.3.5 1.6l2.4 1.3c.2.1.4.1.6.1.4 0 .8-.2 1.1-.6.3-.6 0-1.3-.5-1.6z"/><path d="m57.7 23.7h-2.8c-.7 0-1.2.5-1.2 1.2s.5 1.2 1.2 1.2h2.8c.7 0 1.2-.5 1.2-1.2 0-.6-.5-1.2-1.2-1.2z"/><path d="m51.9 15.5c.2 0 .4 0 .6-.1l2.4-1.3c.6-.3.8-1 .5-1.6-.2-.4-.6-.6-1.1-.6-.2 0-.4 0-.6.1l-2.4 1.3c-.6.3-.8 1-.5 1.6.2.4.6.6 1.1.6z"/><path d="m42.8 7.6c.2.1.4.2.6.2.4 0 .8-.2 1-.6l1.5-2.2c.1-.3.2-.6.1-.9s-.3-.6-.5-.7-.4-.2-.6-.2c-.4 0-.8.2-1 .6l-1.4 2.2c-.2.3-.2.6-.2.9.1.3.3.5.5.7z"/></g></g></svg>