<svg id="Layer_1" viewBox="0 0 512 512" xmlns="http://www.w3.org/2000/svg" data-name="Layer 1"><path d="m185.72 207.336-48.687 15.276c-2.865.877-4.948 3.541-4.948 6.693v77.98h-85.123v-73.896c0-3.866-3.134-7-7-7s-7 3.134-7 7v76.692c0 5.495-4.484 9.966-9.996 9.966s-9.966-4.471-9.966-9.966v-79.695c0-10.792 5.031-22.256 13.458-30.665 8.244-8.227 18.728-12.753 29.522-12.753h.083l116.689.39h.023c1.703 0 3.349-.621 4.627-1.748l36.849-32.463c2.171-1.916 4.975-2.87 7.9-2.681 2.913.186 5.563 1.479 7.473 3.653 3.979 4.511 3.543 11.421-.967 15.4l-42.938 37.815zm-39.635 274.236c0 3.69 3.002 6.693 6.692 6.693h94.92c3.69 0 6.692-3.002 6.692-6.693v-21.68c0-13.112-11.731-23.779-26.15-23.779h-55.973c-14.437 0-26.182 10.667-26.182 23.779v21.68zm-99.123-11.081c0 9.8 7.974 17.773 17.773 17.773s17.803-7.973 17.803-17.773v-105.219c0-3.866 3.134-7 7-7s7 3.134 7 7v105.219c0 9.8 7.973 17.773 17.773 17.773s17.773-7.973 17.773-17.773v-149.207h-85.122zm196.875-320.06 36.615-36.588c2.734-2.733 2.736-7.165.003-9.899-2.731-2.735-7.164-2.736-9.899-.004l-36.145 36.118c-3.395-2.069-7.27-3.301-11.367-3.563-6.67-.421-13.073 1.761-18.049 6.15l-34.852 30.704-7.062-.024v-120.823h319.764v221.932h-336.76v-39.989l45.243-14.196c.934-.293 1.796-.778 2.531-1.425l44.056-38.8c8.583-7.571 10.697-19.779 5.922-29.592zm68.214 67.613c0-3.866-3.134-7-7-7h-26.814c-3.866 0-7 3.134-7 7s3.134 7 7 7h26.814c3.866 0 7-3.134 7-7zm121.975 0c0-3.866-3.134-7-7-7h-81.496c-3.866 0-7 3.134-7 7s3.134 7 7 7h81.496c3.866 0 7-3.134 7-7zm-130.6-109.152c0 3.866 3.134 7 7 7h116.6c3.866 0 7-3.134 7-7s-3.134-7-7-7h-116.6c-3.866 0-7 3.134-7 7zm123.6 29.394h-26.814c-3.866 0-7 3.134-7 7s3.134 7 7 7h26.814c3.866 0 7-3.134 7-7s-3.134-7-7-7zm-154.799 7c0 3.866 3.134 7 7 7h90.235c3.866 0 7-3.134 7-7s-3.134-7-7-7h-90.235c-3.866 0-7 3.134-7 7zm-17.356 36.364c0 3.866 3.134 7 7 7h165.155c3.866 0 7-3.134 7-7s-3.134-7-7-7h-165.155c-3.866 0-7 3.134-7 7zm-108.785 121.551h352.915v-14.767h-352.916v14.767zm128.998 185.064h94.919c3.69 0 6.693-3.002 6.693-6.693v-21.68c0-13.112-11.731-23.779-26.151-23.779h-55.973c-14.437 0-26.182 10.667-26.182 23.779v21.68c0 3.69 3.003 6.693 6.693 6.693zm-185.546-316.944c18.207 0 33.019-14.812 33.019-33.018s-14.812-33.052-33.019-33.052-33.018 14.827-33.018 33.052 14.812 33.018 33.018 33.018zm307.85 316.944h94.919c3.69 0 6.693-3.002 6.693-6.693v-21.68c0-13.112-11.731-23.779-26.151-23.779h-55.973c-14.437 0-26.181 10.667-26.181 23.779v21.68c0 3.69 3.002 6.693 6.692 6.693zm-251.303-449.763h352.915v-14.767h-352.915zm25.562 355.328c0 15.765 12.826 28.591 28.591 28.591s28.59-12.826 28.59-28.591-12.826-28.591-28.59-28.591-28.591 12.826-28.591 28.591zm122.305 0c0 15.765 12.826 28.591 28.591 28.591s28.59-12.826 28.59-28.591-12.826-28.591-28.59-28.591-28.591 12.826-28.591 28.591zm122.305 0c0 15.765 12.826 28.591 28.591 28.591s28.59-12.826 28.59-28.591-12.826-28.591-28.59-28.591-28.591 12.826-28.591 28.591z"/></svg>