<svg id="Icons" height="512" viewBox="0 0 60 60" width="512" fill="#ff595eff" xmlns="http://www.w3.org/2000/svg"><path d="m46.3 11.284a19.073 19.073 0 0 0 -10.719-8.445 20.952 20.952 0 0 1 4.319 8.894q3.229-.168 6.4-.449z"/><path d="m46.316 30.717q-3.181-.279-6.431-.451c-.208.823-.437 1.625-.7 2.388 2.225-.162 4.335-.368 6.248-.593q.474-.656.883-1.344z"/><path d="m23.844 45.166.019-.043a7.972 7.972 0 0 1 .027-10.276 110.211 110.211 0 0 1 -17.407-2.222 15.905 15.905 0 0 1 1.517 7.375 15.883 15.883 0 0 1 -1.533 7.408 116.73 116.73 0 0 1 17.377-2.242z"/><path d="m11.039 22a18.809 18.809 0 0 0 1.636 6.8c2.3-.214 4.642-.381 7-.507a39.153 39.153 0 0 1 -.653-6.293z"/><path d="m11.051 20h7.975a39.047 39.047 0 0 1 .644-6.287q-3.525-.19-6.979-.507a18.834 18.834 0 0 0 -1.64 6.794z"/><path d="m13.7 11.284q3.168.277 6.4.449a20.952 20.952 0 0 1 4.314-8.894 19.073 19.073 0 0 0 -10.714 8.445z"/><path d="m20.805 32.637c-.259-.758-.485-1.555-.691-2.371q-3.251.168-6.435.452.381.637.816 1.249c1.896.255 4.011.489 6.31.67z"/><path d="m38.978 22h-7.978v6.015q3.664.019 7.305.173a36.739 36.739 0 0 0 .673-6.188z"/><path d="m37.846 30.174q-3.409-.139-6.846-.158v2.053a7.97 7.97 0 0 1 2.755.871c1.094-.035 2.178-.083 3.243-.144a26.493 26.493 0 0 0 .848-2.622z"/><path d="m26.246 32.94a7.937 7.937 0 0 1 2.754-.871v-2.053q-3.434.017-6.847.158a26.5 26.5 0 0 0 .847 2.614c1.05.063 2.129.112 3.246.152z"/><path d="m6 40c0-4.388-1.245-6.63-2-7.587-.752.953-2 3.2-2 7.587s1.245 6.63 2 7.587c.753-.953 2-3.195 2-7.587z"/><path d="m55.3 32.359c-1.916.679-9.9 2.026-19.194 2.486a7.972 7.972 0 0 1 .029 10.278l.019.042c8.615.457 17.161 1.773 19.138 2.473a.751.751 0 0 0 .868-.258c.84-1.159 1.84-3.386 1.84-7.38s-1-6.221-1.841-7.385a.747.747 0 0 0 -.859-.256z"/><path d="m29 28.015v-6.015h-7.978a36.888 36.888 0 0 0 .673 6.188q3.636-.156 7.305-.173z"/><path d="m21.025 20h7.975v-6.012q-3.669-.018-7.3-.174a36.366 36.366 0 0 0 -.675 6.186z"/><path d="m31 2.132v9.852q3.429-.016 6.836-.157c-1.401-5.214-3.936-8.981-6.836-9.695z"/><path d="m29 2.132c-2.9.714-5.435 4.481-6.836 9.7q3.4.138 6.836.157z"/><path d="m31 20h7.975a36.366 36.366 0 0 0 -.673-6.186q-3.628.156-7.3.174z"/><path d="m31.4 47.87-.3.678 4.1 9.185.656-1.706a1 1 0 0 1 1.294-.573l1.71.66-4.277-9.567a7.956 7.956 0 0 1 -3.183 1.323z"/><path d="m21.14 56.114 1.71-.66a1 1 0 0 1 1.294.573l.656 1.706 4.369-9.777a7.94 7.94 0 0 1 -3.752-1.409z"/><path d="m47.323 28.8a18.8 18.8 0 0 0 1.637-6.8h-7.982a39.1 39.1 0 0 1 -.653 6.289c2.357.126 4.694.293 6.998.511z"/><path d="m40.974 20h7.975a18.834 18.834 0 0 0 -1.64-6.794q-3.448.32-6.979.507a39.047 39.047 0 0 1 .644 6.287z"/><circle cx="30" cy="40" r="6"/></svg>