<?xml version="1.0" encoding="UTF-8"?>
<svg xmlns="http://www.w3.org/2000/svg" fill="#ff595eff" id="icons" viewBox="0 0 60 60" width="512" height="512"><path d="M14,11H28a1,1,0,0,0,0-2H14a1,1,0,0,0,0,2Z"/><path d="M57.158,33.174a2.208,2.208,0,0,0-.855-2.065,4.207,4.207,0,0,1-1.535-2.3,2.213,2.213,0,0,0-1.579-1.58,4.229,4.229,0,0,1-2.3-1.536,2.221,2.221,0,0,0-2.065-.856,4.225,4.225,0,0,1-2.7-.535,2.2,2.2,0,0,0-2.235,0,4.249,4.249,0,0,1-2.713.539,2.233,2.233,0,0,0-2.065.855,4.207,4.207,0,0,1-2.3,1.535,2.213,2.213,0,0,0-1.58,1.579,4.229,4.229,0,0,1-1.536,2.3,2.211,2.211,0,0,0-.856,2.065,4.232,4.232,0,0,1-.535,2.7,2.2,2.2,0,0,0,0,2.235,4.24,4.24,0,0,1,.539,2.713,2.208,2.208,0,0,0,.855,2.065,4.207,4.207,0,0,1,1.535,2.3,2.213,2.213,0,0,0,1.579,1.58,4.229,4.229,0,0,1,2.3,1.536,2.226,2.226,0,0,0,2.065.856,4.274,4.274,0,0,1,.575-.04,4.226,4.226,0,0,1,2.13.575,2.2,2.2,0,0,0,2.235,0,4.241,4.241,0,0,1,2.713-.539,2.235,2.235,0,0,0,2.065-.855,4.207,4.207,0,0,1,2.3-1.535,2.213,2.213,0,0,0,1.58-1.579,4.229,4.229,0,0,1,1.536-2.3,2.211,2.211,0,0,0,.856-2.065,4.232,4.232,0,0,1,.535-2.7l0-.009a2.2,2.2,0,0,0,0-2.226A4.24,4.24,0,0,1,57.158,33.174ZM45,47A10,10,0,1,1,55,37,10.011,10.011,0,0,1,45,47Z"/><path d="M45,29a8,8,0,1,0,8,8A8.009,8.009,0,0,0,45,29Zm3.707,6.707-5,5a1,1,0,0,1-1.414,0l-1-1a1,1,0,0,1,1.414-1.414l.293.293,4.293-4.293a1,1,0,0,1,1.414,1.414Z"/><path d="M49.411,57.992a.308.308,0,0,0,.277-.083l1.5-1.5a1.87,1.87,0,0,1,1.317-.543h2.67a.292.292,0,0,0,.269-.4l-2.717-6.227a2.19,2.19,0,0,0-.245.273,4.2,4.2,0,0,1-3.936,1.631,2.239,2.239,0,0,0-1.421.281,4.238,4.238,0,0,1-.7.318l2.758,6.08A.3.3,0,0,0,49.411,57.992Z"/><path d="M34.578,55.728a.3.3,0,0,0,.242.133h2.67a1.871,1.871,0,0,1,1.319.545l1.508,1.509a.308.308,0,0,0,.49-.091l2.76-6.085a4.257,4.257,0,0,1-.692-.315,2.219,2.219,0,0,0-1.424-.285,4.189,4.189,0,0,1-3.938-1.631,2.154,2.154,0,0,0-.247-.275l-2.719,6.238A.262.262,0,0,0,34.578,55.728Z"/><path d="M38.589,7,35,3.413V6a1,1,0,0,0,1,1Z"/><path d="M3,54H33.006l2.454-5.63A4.2,4.2,0,0,1,33.3,45.694a2.2,2.2,0,0,0-.806-1.207,4.209,4.209,0,0,1-1.631-3.936,2.221,2.221,0,0,0-.281-1.421,4.212,4.212,0,0,1,0-4.255,2.215,2.215,0,0,0,.285-1.424,4.212,4.212,0,0,1,1.631-3.938,2.218,2.218,0,0,0,.806-1.2A4.211,4.211,0,0,1,36.306,25.3a2.2,2.2,0,0,0,1.207-.806A4.207,4.207,0,0,1,40,22.921V9H36a3,3,0,0,1-3-3V2L3,2A1,1,0,0,0,2,3V53A1,1,0,0,0,3,54ZM29,29H22a1,1,0,0,1,0-2h7a1,1,0,0,1,0,2Zm-1,4a1,1,0,0,1-1,1H14a1,1,0,0,1,0-2H27A1,1,0,0,1,28,33ZM14,7H28a3,3,0,0,1,0,6H14a3,3,0,0,1,0-6ZM7,17H35a1,1,0,0,1,0,2H7a1,1,0,0,1,0-2Zm0,5H33a1,1,0,0,1,0,2H7a1,1,0,0,1,0-2Zm0,5H18a1,1,0,0,1,0,2H7a1,1,0,0,1,0-2Zm0,5h3a1,1,0,0,1,0,2H7a1,1,0,0,1,0-2Zm0,5H27a1,1,0,0,1,0,2H7a1,1,0,0,1,0-2Zm0,5H28a1,1,0,0,1,0,2H7a1,1,0,0,1,0-2Zm0,5H18a1,1,0,0,1,0,2H7a1,1,0,0,1,0-2Z"/></svg>
