<svg id="Icons" height="512" fill="#ff595eff" viewBox="0 0 60 60" width="512" xmlns="http://www.w3.org/2000/svg"><path d="m19 14a5.006 5.006 0 0 0 5-5v-2a5 5 0 0 0 -10 0v2a5.006 5.006 0 0 0 5 5z"/><path d="m38 23.092v-6.092h11v-10h-11v-3a1 1 0 0 0 -2 0v19h-3.784a3.339 3.339 0 0 1 -2.732-1.422l-3.195-4.564a2.553 2.553 0 0 0 -2.054-1.014h-9.835a5.489 5.489 0 0 0 -3.38 1.169c-2.853 2.246-8.2 6.458-8.392 6.608a.447.447 0 0 1 -.041.032 1.5 1.5 0 0 0 -.587 1.255 1.447 1.447 0 0 0 .63 1.2c.065.047 4.463 3.479 6.877 5.379a1.575 1.575 0 0 0 2.222-.326 1.5 1.5 0 0 0 .284-.874v-.032a1.545 1.545 0 0 0 -.534-1.154l-4.263-3.557a1 1 0 0 1 .034-1.562l5.15-3.938a1 1 0 0 1 1.6.8l.01 9.425a15.009 15.009 0 0 1 -.334 3.234l-4.62 21.927a1.963 1.963 0 0 0 .272 1.5 2.012 2.012 0 0 0 3.649-.673l4.18-17.029a1.923 1.923 0 0 1 3.725 0l4.174 17a2.023 2.023 0 0 0 1.963 1.616 1.651 1.651 0 0 0 .4-.043 2 2 0 0 0 1.3-.873 1.959 1.959 0 0 0 .273-1.492l-4.574-21.636a17.747 17.747 0 0 1 -.392-3.736v-7.69a1 1 0 0 1 1.832-.554l1.974 2.963a2.371 2.371 0 0 0 1.98 1.061h6.188v31a1 1 0 0 0 2 0v-31.092a1.491 1.491 0 0 0 0-2.816z"/><path d="m54.4 15.892 2.6-3.892h-6v5a2 2 0 0 1 -2 2h-2.5a1.5 1.5 0 0 0 -1.492 1.658 1.6 1.6 0 0 0 1.635 1.342h10.357l-2.6-3.891a1.993 1.993 0 0 1 0-2.217z"/></svg>