<svg id="Line" viewBox="0 0 64 64" fill="#ff595eff" xmlns="http://www.w3.org/2000/svg"><g><path d="m32 20.49902c-4.68701 0-8.5-3.81299-8.5-8.5s3.81299-8.5 8.5-8.5 8.5 3.81299 8.5 8.5-3.81299 8.5-8.5 8.5zm0-14c-3.03271 0-5.5 2.46729-5.5 5.5s2.46729 5.5 5.5 5.5 5.5-2.46729 5.5-5.5-2.46729-5.5-5.5-5.5z"/><path d="m43 43.86426c-.82861 0-1.5-.67139-1.5-1.5v-12.36523c0-5.23828-4.26172-9.5-9.5-9.5s-9.5 4.26172-9.5 9.5v12.36523c0 .82861-.67139 1.5-1.5 1.5s-1.5-.67139-1.5-1.5v-12.36523c0-6.89258 5.60742-12.5 12.5-12.5s12.5 5.60742 12.5 12.5v12.36523c0 .82861-.67139 1.5-1.5 1.5z"/><path d="m13 29.49902c-3.85986 0-7-3.14014-7-7s3.14014-7 7-7 7 3.14014 7 7-3.14014 7-7 7zm0-11c-2.20557 0-4 1.79443-4 4s1.79443 4 4 4 4-1.79443 4-4-1.79443-4-4-4z"/><path d="m51 29.49902c-3.85986 0-7-3.14014-7-7s3.14014-7 7-7 7 3.14014 7 7-3.14014 7-7 7zm0-11c-2.20557 0-4 1.79443-4 4s1.79443 4 4 4 4-1.79443 4-4-1.79443-4-4-4z"/><path d="m59 48.49902h-10c-.82861 0-1.5-.67139-1.5-1.5s.67139-1.5 1.5-1.5h8.5v-9.5c0-3.58398-2.91602-6.5-6.5-6.5s-6.5 2.91602-6.5 6.5c0 .82861-.67139 1.5-1.5 1.5s-1.5-.67139-1.5-1.5c0-5.23828 4.26172-9.5 9.5-9.5s9.5 4.26172 9.5 9.5v11c0 .82861-.67139 1.5-1.5 1.5z"/><path d="m15 48.49902h-10c-.82861 0-1.5-.67139-1.5-1.5v-11c0-5.23828 4.26172-9.5 9.5-9.5s9.5 4.26172 9.5 9.5c0 .82861-.67139 1.5-1.5 1.5s-1.5-.67139-1.5-1.5c0-3.58398-2.91602-6.5-6.5-6.5s-6.5 2.91602-6.5 6.5v9.5h8.5c.82861 0 1.5.67139 1.5 1.5s-.67139 1.5-1.5 1.5z"/><path d="m39.65869 60.50098c-.31787 0-.6377-.06494-.94336-.19678l-6.71533-2.896-6.71533 2.896c-.77637.33496-1.64893.2373-2.33301-.25977-.68359-.49707-1.04492-1.2959-.96631-2.1377l.67871-7.28125-4.8291-5.4917c-.55811-.63525-.73535-1.49463-.47412-2.29834.26123-.8042.90967-1.39453 1.73438-1.58008l7.13525-1.60449 3.73047-6.29004c.43115-.72754 1.19336-1.16162 2.03906-1.16162s1.60791.43408 2.03906 1.16162l3.73047 6.29004 7.13525 1.60449c.82471.18555 1.47314.77588 1.73438 1.58008.26123.80371.08398 1.66309-.47412 2.29785l-4.8291 5.49219.67871 7.28174c.07861.84131-.28271 1.64014-.96631 2.13721-.41504.30176-.89941.45605-1.38965.45654zm-7.65869-6.22607c.20215 0 .4043.04102.59375.12256l6.33545 2.73193-.64062-6.86963c-.03809-.41113.09473-.81982.36719-1.12988l4.55566-5.18066-6.73096-1.51367c-.40283-.09033-.75049-.34326-.96094-.69824l-3.51953-5.93359-3.51953 5.93359c-.21045.35498-.55811.60791-.96094.69824l-6.73096 1.51367 4.55566 5.18066c.27246.31006.40527.71875.36719 1.12988l-.64062 6.86963 6.33545-2.73193c.18945-.08154.3916-.12256.59375-.12256zm-.54102-19.38379c0 .00049.00049.00098.00049.00098z"/></g></svg>