<svg id="Capa_1" enable-background="new 0 0 512 512"  height="512" viewBox="0 0 512 512" width="512" xmlns="http://www.w3.org/2000/svg"><g><path d="m271 346c8.283 0 15-6.716 15-15v-60c0-8.283-6.714-15-15-15h-30c-8.283 0-15 6.714-15 15v60c0 8.283 6.716 15 15 15z"/><path d="m467 91h-106c0-3.021 0-18.021 0-15 0-24.814-20.185-45-45-45-3.256 0-124.455 0-120 0-24.814 0-45 20.185-45 45 0 3.021 0 18.021 0 15h-106c-24.814 0-45 20.185-45 45 0 29.377 3.6 55.104 10.748 77.029s17.845 40.049 32.04 54.221c23.887 23.855 54.313 33.75 88.477 33.75h64.735c0-3.021 0-33.021 0-30 0-24.814 20.185-45 45-45 3.021 0 33.021 0 30 0 24.814 0 45 20.185 45 45 0 3.021 0 33.021 0 30h33.329c29.86-1.241 78.703 7.839 119.868-33.135 14.202-14.136 24.902-32.292 32.053-54.32s10.75-47.926 10.75-77.545c0-24.814-20.185-45-45-45zm-286-15c0-8.276 6.723-15 15-15h120c8.276 0 15 6.723 15 15 0 3.021 0 18.021 0 15h-150c0-3.021 0-18.021 0-15z"/><path d="m349.739 331h-33.739c0 24.814-20.185 45-45 45-3.021 0-33.021 0-30 0-24.814 0-45-20.185-45-45-3.427 0-68.308 0-64.604 0-42.784 0-80.363-13.128-109.805-42.524-8.317-8.303-15.419-17.652-21.591-27.651v205.175c0 8.291 6.709 15 15 15h482c8.291 0 15-6.709 15-15v-204.558c-6.255 10.151-13.386 19.478-21.636 27.693-47.331 47.083-97.737 39.839-140.625 41.865z"/></g></svg>